<svg width="120" height="125" viewBox="0 0 120 125" fill="none" xmlns="http://www.w3.org/2000/svg">
<path d="M107.303 123.105C106.593 124.289 105.058 124.675 103.873 123.965L84.5687 112.408C83.3841 111.698 82.9987 110.163 83.708 108.979C84.4172 107.794 85.9525 107.409 87.1371 108.118L104.297 118.391L114.57 101.232C115.28 100.047 116.815 99.6616 117.999 100.371C119.184 101.08 119.569 102.615 118.86 103.8L107.303 123.105ZM1.95662 0.0340143C34.007 13.3083 56.2312 26.5133 72.5499 45.0792C88.875 63.6523 99.0836 87.3543 107.582 121.212L102.733 122.429C94.3193 88.9112 84.363 66.0926 68.7944 48.3801C53.2194 30.6603 31.821 17.8148 0.0433803 4.65349L1.95662 0.0340143Z" fill="#F9A641"/>
</svg>
