<svg width="120" height="125" viewBox="0 0 120 125" fill="none" xmlns="http://www.w3.org/2000/svg">
<path d="M12.4565 123.105C13.1657 124.289 14.701 124.675 15.8856 123.965L35.1903 112.408C36.3749 111.698 36.7603 110.163 36.0511 108.979C35.3418 107.794 33.8065 107.409 32.6219 108.118L15.4622 118.391L5.18871 101.232C4.47947 100.047 2.94419 99.6616 1.75956 100.371C0.574929 101.08 0.18955 102.615 0.898792 103.8L12.4565 123.105ZM117.802 0.0340143C85.7521 13.3083 63.5278 26.5133 47.2091 45.0792C30.8841 63.6523 20.6755 87.3543 12.1767 121.212L17.0262 122.429C25.4398 88.9112 35.396 66.0926 50.9646 48.3801C66.5397 30.6603 87.9381 17.8148 119.716 4.65349L117.802 0.0340143Z" fill="#F9A641"/>
</svg>
