<svg width="49" height="49" viewBox="0 0 49 49" fill="none" xmlns="http://www.w3.org/2000/svg">
<g clip-path="url(#clip0_449_858)">
<path d="M40.0207 38.8086H8.48925C7.82224 38.8086 7.2765 39.3543 7.2765 40.0213V42.4468C7.2765 43.1138 7.82224 43.6596 8.48925 43.6596H40.0207C40.6878 43.6596 41.2335 43.1138 41.2335 42.4468V40.0213C41.2335 39.3543 40.6878 38.8086 40.0207 38.8086ZM44.8717 14.5536C42.8631 14.5536 41.2335 16.1832 41.2335 18.1918C41.2335 18.73 41.3548 19.2302 41.567 19.6926L36.0793 22.9822C34.912 23.6795 33.4037 23.2854 32.7291 22.1029L26.5516 11.2943C27.3627 10.6273 27.8932 9.62677 27.8932 8.48981C27.8932 6.4812 26.2636 4.85156 24.255 4.85156C22.2464 4.85156 20.6167 6.4812 20.6167 8.48981C20.6167 9.62677 21.1473 10.6273 21.9584 11.2943L15.7809 22.1029C15.1063 23.2854 13.5904 23.6795 12.4307 22.9822L6.95057 19.6926C7.15522 19.2378 7.28408 18.73 7.28408 18.1918C7.28408 16.1832 5.65445 14.5536 3.64583 14.5536C1.63721 14.5536 0 16.1832 0 18.1918C0 20.2004 1.62963 21.8301 3.63825 21.8301C3.83532 21.8301 4.03239 21.7997 4.22189 21.7694L9.702 36.3831H38.808L44.2881 21.7694C44.4776 21.7997 44.6747 21.8301 44.8717 21.8301C46.8804 21.8301 48.51 20.2004 48.51 18.1918C48.51 16.1832 46.8804 14.5536 44.8717 14.5536Z" fill="#F9A641"/>
</g>
<defs>
<clipPath id="clip0_449_858">
<rect width="48.51" height="48.51" fill="white"/>
</clipPath>
</defs>
</svg>
