<?xml version="1.0" encoding="UTF-8" standalone="no"?>
<!DOCTYPE svg PUBLIC "-//W3C//DTD SVG 1.1//EN" "http://www.w3.org/Graphics/SVG/1.1/DTD/svg11.dtd">
<svg width="100%" height="100%" viewBox="0 0 49 49" version="1.1" xmlns="http://www.w3.org/2000/svg" xmlns:xlink="http://www.w3.org/1999/xlink" xml:space="preserve" xmlns:serif="http://www.serif.com/" style="fill-rule:evenodd;clip-rule:evenodd;stroke-linejoin:round;stroke-miterlimit:2;">
    <g>
        <path d="M40.021,38.809L8.489,38.809C7.822,38.809 7.277,39.354 7.277,40.021L7.277,42.447C7.277,43.114 7.822,43.66 8.489,43.66L40.021,43.66C40.688,43.66 41.234,43.114 41.234,42.447L41.234,40.021C41.234,39.354 40.688,38.809 40.021,38.809ZM44.872,14.554C42.863,14.554 41.234,16.183 41.234,18.192C41.234,18.73 41.355,19.23 41.567,19.693L36.079,22.982C34.912,23.68 33.404,23.285 32.729,22.103L26.552,11.294C27.363,10.627 27.893,9.627 27.893,8.49C27.893,6.481 26.264,4.852 24.255,4.852C22.246,4.852 20.617,6.481 20.617,8.49C20.617,9.627 21.147,10.627 21.958,11.294L15.781,22.103C15.106,23.285 13.59,23.68 12.431,22.982L6.951,19.693C7.155,19.238 7.284,18.73 7.284,18.192C7.284,16.183 5.654,14.554 3.646,14.554C1.637,14.554 0,16.183 0,18.192C0,20.2 1.63,21.83 3.638,21.83C3.835,21.83 4.032,21.8 4.222,21.769L9.702,36.383L38.808,36.383L44.288,21.769C44.478,21.8 44.675,21.83 44.872,21.83C46.88,21.83 48.51,20.2 48.51,18.192C48.51,16.183 46.88,14.554 44.872,14.554Z" style="fill:white;fill-rule:nonzero;"/>
    </g>
</svg>
