<svg width="41" height="42" viewBox="0 0 41 42" fill="none" xmlns="http://www.w3.org/2000/svg">
<circle cx="7.5" cy="34" r="7.5" fill="#D9D9D9"/>
<path d="M27.1129 2.125C27.2608 2.12474 27.4072 2.15361 27.5439 2.20998C27.6806 2.26635 27.8048 2.3491 27.9095 2.4535L39.0469 13.591C39.2579 13.802 39.3763 14.0881 39.3763 14.3864C39.3763 14.6847 39.2579 14.9708 39.0469 15.1818C37.9669 16.2618 36.6349 16.5048 35.6652 16.5048C35.2669 16.5048 34.9114 16.4643 34.6302 16.417L27.5787 23.4685C27.7635 24.2166 27.884 24.9791 27.9387 25.7478C28.0422 27.3273 27.8667 29.5435 26.3187 31.0915C26.1077 31.3024 25.8216 31.4209 25.5233 31.4209C25.225 31.4209 24.9389 31.3024 24.7279 31.0915L18.3627 24.7285L11.2032 31.888C10.7644 32.3268 8.46045 33.9175 8.0217 33.4788C7.58295 33.04 9.1737 30.7338 9.61245 30.2973L16.7719 23.1378L10.4089 16.7725C10.198 16.5615 10.0796 16.2754 10.0796 15.9771C10.0796 15.6788 10.198 15.3927 10.4089 15.1818C11.9569 13.6338 14.1732 13.456 15.7527 13.5618C16.5213 13.6165 17.2839 13.7369 18.0319 13.9218L25.0834 6.8725C25.0268 6.52958 24.9967 6.1828 24.9934 5.83525C24.9934 4.86775 25.2365 3.53575 26.3187 2.4535C26.5295 2.2432 26.8152 2.12507 27.1129 2.125Z" fill="#527D49"/>
</svg>
